<svg width="28" height="28" viewBox="0 0 28 28" fill="none" xmlns="http://www.w3.org/2000/svg">
<path d="M2.80078 3.36L3.02993 9.40858L14.4304 19.5812L16.6647 17.4367L11.165 12.1579L10.764 11.0032L11.967 11.3881L17.4668 16.6669L19.701 14.5224L9.15986 3.52496L2.80078 3.36ZM3.2018 22.1656L6.81101 18.7014L4.06114 16.062C3.66011 15.6771 3.66011 15.0722 4.06114 14.6873L4.63403 14.1375C5.03505 13.7526 5.66523 13.7526 6.06625 14.1375L13.8003 21.5607C13.9148 21.6707 13.9721 21.6707 13.9721 21.6707C13.9721 21.6707 14.0867 21.6707 14.2013 21.5607L21.9353 14.1375C22.3363 13.7526 22.9665 13.7526 23.3675 14.1375L23.9404 14.6873C24.3414 15.0722 24.3414 15.6771 23.9404 16.062L21.1905 18.7014L24.7998 22.1656C25.2581 22.6055 25.2581 23.3753 24.7998 23.8152L24.2842 24.3101C23.8258 24.75 23.0238 24.75 22.5655 24.3101L18.9563 20.8459L16.2064 23.4853C15.1752 24.475 12.7691 24.475 11.7379 23.4853L8.98799 20.8459L5.37879 24.3101C4.92047 24.75 4.11843 24.75 3.66012 24.3101L3.14451 23.8152C2.6862 23.3203 2.6862 22.6055 3.2018 22.1656ZM15.1752 7.31907L20.8468 13.0927L24.9716 9.40858L25.2008 3.36L18.899 3.57995L15.1752 7.31907Z" fill="white"/>
</svg>
