<svg width="35" height="36" viewBox="0 0 35 36" fill="none" xmlns="http://www.w3.org/2000/svg">
<path d="M30.5596 12.2556L17.0028 24.9519L14.3326 22.2608L20.8713 15.6712L21.3506 14.2222L19.9127 14.7052L13.374 21.2948L10.7037 18.6038L23.3019 4.9415L30.7992 4.7L30.5596 12.2556ZM17.2767 27.3669L8.10192 18.1208C7.62264 17.6377 6.86949 17.6377 6.39021 18.1208L5.70553 18.8108C5.22625 19.2938 5.22625 20.0528 5.70553 20.5358L8.95778 23.8134L4.61003 28.1949C4.06228 28.7469 4.06228 29.6785 4.61003 30.2305L5.26048 30.886C5.80823 31.438 6.73255 31.438 7.2803 30.886L11.5938 26.5389L14.8461 29.8165C15.3253 30.2995 16.0785 30.2995 16.5578 29.8165L17.2425 29.1265C17.756 28.6089 17.756 27.8499 17.2767 27.3669Z" fill="white"/>
</svg>
